<svg width="13" height="13" viewBox="0 0 13 13" fill="none" xmlns="http://www.w3.org/2000/svg">
<path d="M8.125 11.375V7.04167C8.125 6.89801 8.06793 6.76023 7.96635 6.65865C7.86477 6.55707 7.72699 6.5 7.58333 6.5H5.41667C5.27301 6.5 5.13523 6.55707 5.03365 6.65865C4.93207 6.76023 4.875 6.89801 4.875 7.04167V11.375" stroke="white" stroke-linecap="round" stroke-linejoin="round"/>
<path d="M1.625 5.41667C1.62496 5.25908 1.65931 5.10338 1.72564 4.96043C1.79196 4.81748 1.88868 4.69073 2.00904 4.589L5.80071 1.33954C5.99624 1.17429 6.24399 1.08362 6.5 1.08362C6.75602 1.08362 7.00376 1.17429 7.19929 1.33954L10.991 4.589C11.1113 4.69073 11.208 4.81748 11.2744 4.96043C11.3407 5.10338 11.375 5.25908 11.375 5.41667V10.2917C11.375 10.579 11.2609 10.8545 11.0577 11.0577C10.8545 11.2609 10.579 11.375 10.2917 11.375H2.70833C2.42102 11.375 2.14547 11.2609 1.9423 11.0577C1.73914 10.8545 1.625 10.579 1.625 10.2917V5.41667Z" stroke="white" stroke-linecap="round" stroke-linejoin="round"/>
</svg>
