<svg width="13" height="13" viewBox="0 0 13 13" fill="none" xmlns="http://www.w3.org/2000/svg">
<g id="icon-boq">
<path id="Vector" d="M4.875 1.625H2.16667C1.86751 1.625 1.625 1.86751 1.625 2.16667V5.95833C1.625 6.25749 1.86751 6.5 2.16667 6.5H4.875C5.17415 6.5 5.41667 6.25749 5.41667 5.95833V2.16667C5.41667 1.86751 5.17415 1.625 4.875 1.625Z" stroke="white" stroke-linecap="round" stroke-linejoin="round"/>
<path id="Vector_2" d="M10.8333 1.625H8.125C7.82584 1.625 7.58333 1.86751 7.58333 2.16667V3.79167C7.58333 4.09082 7.82584 4.33333 8.125 4.33333H10.8333C11.1325 4.33333 11.375 4.09082 11.375 3.79167V2.16667C11.375 1.86751 11.1325 1.625 10.8333 1.625Z" stroke="white" stroke-linecap="round" stroke-linejoin="round"/>
<path id="Vector_3" d="M10.8333 6.5H8.125C7.82584 6.5 7.58333 6.74251 7.58333 7.04167V10.8333C7.58333 11.1325 7.82584 11.375 8.125 11.375H10.8333C11.1325 11.375 11.375 11.1325 11.375 10.8333V7.04167C11.375 6.74251 11.1325 6.5 10.8333 6.5Z" stroke="white" stroke-linecap="round" stroke-linejoin="round"/>
<path id="Vector_4" d="M4.875 8.66669H2.16667C1.86751 8.66669 1.625 8.9092 1.625 9.20835V10.8334C1.625 11.1325 1.86751 11.375 2.16667 11.375H4.875C5.17415 11.375 5.41667 11.1325 5.41667 10.8334V9.20835C5.41667 8.9092 5.17415 8.66669 4.875 8.66669Z" stroke="white" stroke-linecap="round" stroke-linejoin="round"/>
</g>
</svg>
